<?xml version="1.0" standalone="no"?>
<!DOCTYPE svg PUBLIC "-//W3C//DTD SVG 20010904//EN"
 "http://www.w3.org/TR/2001/REC-SVG-20010904/DTD/svg10.dtd">
<svg version="1.0" xmlns="http://www.w3.org/2000/svg"
 width="1158.000000pt" height="1158.000000pt" viewBox="0 0 1158.000000 1158.000000"
 preserveAspectRatio="xMidYMid meet">
<metadata>
Created by potrace 1.14, written by Peter Selinger 2001-2017
</metadata>
<g transform="translate(0.000000,1158.000000) scale(0.100000,-0.100000)"
fill="#000000" stroke="none">
<path d="M7302 6514 c-54 -27 -108 -45 -157 -53 -82 -14 -95 -28 -43 -52 17
-8 41 -26 52 -42 20 -26 20 -41 20 -475 0 -431 0 -449 -20 -482 -11 -19 -34
-44 -52 -55 -17 -11 -31 -27 -29 -35 2 -12 36 -15 227 -15 124 -1 231 1 238 3
21 7 13 26 -18 47 -68 45 -64 11 -70 635 l-5 564 -30 1 c-16 0 -67 -19 -113
-41z"/>
<path d="M5730 6542 c-80 -35 -110 -130 -64 -200 8 -13 29 -32 47 -42 81 -50
190 5 190 96 0 43 12 44 26 3 16 -46 14 -77 -10 -125 -37 -78 -125 -141 -284
-205 -49 -20 -91 -42 -92 -50 -2 -8 14 -22 35 -31 58 -27 65 -56 63 -292 -1
-111 -4 -215 -7 -232 -8 -42 -59 -103 -101 -120 -18 -8 -33 -21 -33 -29 0 -21
546 -21 554 1 3 9 -6 19 -28 28 -38 16 -70 47 -94 91 -14 26 -17 74 -17 350
l-1 320 28 62 c68 144 40 273 -76 351 -48 32 -98 41 -136 24z"/>
<path d="M7783 6480 c-66 -33 -174 -67 -197 -62 -4 2 -16 0 -27 -3 -21 -7 -15
-35 8 -35 8 0 30 -15 49 -34 l34 -34 0 -453 c0 -437 -1 -455 -20 -487 -11 -18
-27 -35 -35 -38 -8 -4 -15 -13 -15 -21 0 -13 13 -15 89 -10 85 5 159 29 176
57 4 7 18 4 38 -9 80 -49 258 -63 355 -28 91 32 170 108 214 203 21 44 23 64
23 209 l0 160 -33 67 c-87 176 -317 260 -464 169 -27 -17 -51 -31 -53 -31 -2
0 -4 42 -4 93 0 50 0 145 -1 210 l0 117 -32 -2 c-18 0 -66 -18 -105 -38z m333
-459 c23 -10 52 -34 65 -52 23 -33 24 -39 27 -264 2 -205 1 -234 -15 -264 -41
-78 -128 -98 -203 -46 -62 43 -65 59 -65 337 0 246 0 246 24 272 36 38 105 45
167 17z"/>
<path d="M10610 6484 c-54 -28 -177 -64 -227 -67 -20 -1 -24 -27 -5 -33 41
-14 65 -30 78 -56 11 -22 14 -106 14 -455 0 -416 -1 -429 -21 -462 -23 -38
-58 -70 -76 -71 -6 0 -9 -8 -7 -17 5 -17 25 -18 245 -18 206 0 239 2 239 15
-1 8 -15 24 -32 35 -66 42 -72 60 -76 230 -2 94 0 155 6 155 5 0 57 -68 116
-151 116 -166 125 -191 81 -235 -28 -28 -31 -40 -12 -46 6 -2 125 -3 262 -3
241 1 250 1 253 20 2 15 -8 25 -37 39 -67 32 -112 83 -276 314 l-157 223 23
26 c87 94 150 146 221 181 43 20 77 43 78 50 0 9 -37 12 -155 12 -163 0 -179
-5 -135 -43 12 -10 20 -29 20 -47 0 -25 -23 -52 -140 -170 -76 -77 -142 -136
-145 -131 -3 5 -5 128 -4 273 0 144 0 309 0 366 l-1 102 -32 -1 c-18 -1 -62
-16 -98 -35z"/>
<path d="M110 6475 c0 -8 18 -24 40 -35 22 -11 52 -39 67 -62 l28 -42 3 -415
c2 -284 0 -428 -8 -454 -13 -46 -60 -100 -100 -117 -16 -7 -30 -19 -30 -26 0
-11 32 -14 170 -14 138 0 170 3 170 14 0 7 -14 19 -30 26 -41 17 -87 71 -99
117 -14 48 -15 783 -2 783 5 0 32 -42 59 -92 47 -89 75 -140 147 -273 96 -177
300 -554 317 -587 22 -42 38 -57 38 -35 0 8 6 27 14 43 8 16 82 200 165 409
236 597 230 582 231 555 5 -93 1 -783 -4 -805 -11 -42 -55 -94 -98 -116 -21
-11 -36 -24 -33 -30 4 -6 110 -9 281 -9 291 1 315 6 233 44 -27 12 -51 34 -70
65 l-30 46 3 442 3 441 31 38 c16 21 47 46 67 57 20 10 37 25 37 33 0 12 -36
14 -208 14 l-208 0 -163 -394 c-90 -216 -167 -399 -172 -407 -10 -17 -7 -20
-59 76 -70 131 -102 191 -210 388 -56 104 -119 221 -140 260 l-39 72 -200 3
c-173 2 -201 0 -201 -13z"/>
<path d="M3333 6169 c-87 -11 -157 -38 -207 -81 -65 -56 -90 -107 -91 -188 0
-94 5 -102 52 -87 50 17 134 13 188 -7 78 -30 145 -124 145 -204 0 -31 5 -41
31 -56 59 -35 64 -90 13 -146 -88 -97 -296 -83 -379 26 -40 52 -47 154 -16
211 29 51 96 93 147 93 l39 -1 -30 -13 c-44 -19 -85 -71 -85 -107 0 -91 97
-147 180 -104 76 39 78 145 4 219 -41 40 -88 58 -158 58 -80 1 -142 -29 -201
-94 -121 -134 -62 -303 132 -379 50 -19 77 -23 188 -23 186 0 292 31 371 111
47 46 66 94 65 160 0 68 -28 129 -76 171 -41 36 -151 90 -243 119 -72 23 -132
79 -132 123 0 78 59 140 133 140 83 0 152 -56 218 -175 62 -113 69 -104 69 80
0 170 1 167 -60 141 -22 -9 -44 -11 -69 -5 -72 16 -177 24 -228 18z"/>
<path d="M1614 6153 c2 -10 17 -21 35 -26 59 -15 139 -75 183 -137 14 -19 92
-156 173 -305 81 -148 161 -294 177 -323 l29 -53 -52 -97 c-80 -149 -113 -195
-156 -222 -27 -17 -47 -40 -62 -72 -22 -48 -50 -69 -34 -25 14 39 7 106 -14
135 -59 81 -171 75 -223 -11 -53 -86 10 -198 113 -202 57 -2 112 11 174 42 92
44 137 98 238 288 26 50 51 95 55 100 4 6 61 109 127 230 273 499 295 537 335
577 38 38 106 78 133 78 8 0 15 9 15 20 0 19 -7 20 -170 20 -160 0 -170 -1
-170 -19 0 -10 9 -21 19 -24 29 -7 62 -66 57 -100 -5 -35 -218 -428 -229 -424
-5 1 -24 32 -44 67 -19 36 -49 92 -67 125 -88 161 -115 212 -121 232 -8 29 21
90 46 98 10 4 19 15 19 26 0 18 -10 19 -294 19 -272 0 -294 -1 -292 -17z"/>
<path d="M4065 6149 c-91 -32 -160 -85 -217 -168 -147 -211 -62 -530 170 -639
52 -25 68 -27 182 -27 143 0 198 15 277 75 100 75 147 186 147 345 0 86 -3
108 -25 155 -49 106 -129 162 -229 161 -131 0 -241 -99 -257 -231 -7 -64 16
-104 76 -127 43 -16 45 -16 90 8 37 19 48 31 55 60 21 83 -23 149 -103 155
-20 2 -38 3 -41 4 -3 0 2 5 10 10 28 18 85 11 128 -17 65 -42 86 -101 85 -238
-1 -121 -17 -186 -60 -243 -41 -55 -79 -72 -157 -72 -64 0 -70 2 -101 33 -52
52 -58 88 -61 324 -2 224 4 270 46 338 11 18 35 40 52 48 38 18 120 16 144 -4
15 -12 46 -13 96 -4 10 2 32 0 50 -5 l33 -9 -27 22 c-46 38 -117 59 -213 63
-74 4 -101 1 -150 -17z"/>
<path d="M4984 6151 c-195 -55 -314 -217 -308 -421 3 -129 30 -209 99 -288 74
-85 160 -129 276 -138 188 -16 343 79 377 232 8 36 7 41 -7 37 -9 -2 -22 -17
-29 -32 -17 -39 -79 -99 -126 -123 -96 -49 -230 12 -288 130 -21 43 -23 60
-23 207 1 146 3 165 24 213 13 29 35 61 48 72 36 28 105 36 144 16 18 -9 53
-16 78 -16 25 0 53 -5 61 -10 8 -5 13 -10 10 -10 -3 -1 -22 -2 -42 -4 -91 -7
-138 -95 -98 -182 21 -47 68 -77 120 -76 94 1 149 74 130 173 -27 142 -137
225 -308 233 -53 3 -96 -1 -138 -13z"/>
<path d="M6347 6159 c-103 -24 -190 -113 -190 -194 0 -145 188 -191 252 -62
20 39 19 70 0 119 -10 23 -37 42 -89 61 -8 3 -1 6 17 6 18 1 43 -4 57 -10 19
-9 29 -8 47 5 34 24 83 20 116 -8 l28 -24 3 -152 3 -152 -74 6 c-123 12 -253
-20 -331 -79 -74 -57 -108 -202 -67 -288 13 -27 39 -56 63 -73 39 -28 47 -29
164 -31 105 -2 135 1 206 22 l83 24 27 -20 c45 -32 79 -41 153 -40 87 1 222
28 222 46 0 7 -24 20 -52 29 -55 17 -101 55 -116 94 -5 13 -9 130 -9 261 0
263 -6 297 -62 365 -41 50 -92 81 -156 95 -61 13 -240 13 -295 0z m241 -615
l3 -141 -44 -6 c-24 -4 -60 -2 -80 4 -34 9 -86 58 -88 82 0 7 -2 21 -5 32 -9
43 8 94 41 127 39 37 61 45 125 44 l45 -1 3 -141z"/>
<path d="M8873 6161 c-151 -39 -283 -183 -313 -341 -14 -73 -13 -116 5 -185
34 -128 109 -227 217 -286 63 -34 63 -34 198 -34 126 0 139 2 193 28 151 70
223 184 232 369 5 115 -25 206 -92 273 -96 95 -247 88 -352 -16 -84 -84 -94
-229 -19 -266 60 -30 100 -23 150 24 51 48 30 146 -37 177 -20 10 -43 15 -52
12 -21 -8 -39 4 -22 15 22 13 77 11 108 -6 38 -19 77 -66 92 -112 18 -54 16
-216 -4 -284 -35 -118 -85 -162 -191 -167 -66 -4 -75 -2 -103 22 -47 40 -65
95 -72 226 -9 176 3 348 30 410 37 86 115 120 194 84 22 -9 45 -16 50 -14 6 1
38 3 73 3 34 0 62 2 62 4 0 2 -29 18 -65 34 -54 26 -80 31 -157 34 -51 3 -107
1 -125 -4z"/>
<path d="M9769 6157 c-91 -26 -177 -91 -238 -182 -113 -166 -87 -406 60 -552
81 -81 140 -105 266 -111 230 -10 376 79 434 268 21 68 28 187 14 250 -19 89
-86 175 -160 206 -151 63 -344 -63 -345 -226 0 -60 17 -91 64 -114 32 -16 44
-17 75 -7 58 17 86 53 86 112 0 41 -5 53 -32 81 -28 28 -38 32 -85 31 -49 -1
-50 0 -27 13 76 42 174 -13 208 -117 24 -75 13 -255 -21 -329 -41 -87 -91
-120 -184 -120 -70 0 -108 21 -133 75 -25 53 -32 99 -35 242 -7 308 33 424
150 440 26 3 53 -1 79 -13 22 -9 45 -16 50 -15 6 2 39 3 73 4 l64 0 -39 24
c-21 13 -54 28 -73 34 -55 17 -199 20 -251 6z"/>
</g>
</svg>
